<svg width="17" height="16" viewBox="0 0 17 16" fill="none" xmlns="http://www.w3.org/2000/svg">
<g id="Icon">
<path id="Icon_2" fill-rule="evenodd" clip-rule="evenodd" d="M5.52601 15.01C11.5636 15.01 14.8673 10.0032 14.8673 5.66867C14.8673 5.52781 14.8673 5.38695 14.8609 5.2461C15.5012 4.78511 16.0582 4.20248 16.5 3.54302C15.911 3.80552 15.2771 3.97839 14.6112 4.06162C15.2899 3.65826 15.8085 3.0116 16.0582 2.2433C15.4244 2.62105 14.7201 2.88996 13.971 3.03721C13.3691 2.39696 12.5176 2 11.5764 2C9.76451 2 8.29192 3.47259 8.29192 5.28451C8.29192 5.54062 8.32393 5.79032 8.37515 6.03361C5.64766 5.89916 3.22749 4.58663 1.60764 2.60184C1.32593 3.08844 1.16587 3.65186 1.16587 4.2537C1.16587 5.39336 1.7485 6.39856 2.62565 6.9876C2.08784 6.96839 1.58203 6.82113 1.14026 6.57783C1.14026 6.59064 1.14026 6.60344 1.14026 6.62265C1.14026 8.21048 2.27351 9.54222 3.77171 9.84314C3.4964 9.91997 3.20828 9.95838 2.90736 9.95838C2.69608 9.95838 2.4912 9.93918 2.29272 9.90076C2.70888 11.2069 3.92537 12.1545 5.35954 12.1801C4.23269 13.0636 2.81773 13.5886 1.28111 13.5886C1.01861 13.5886 0.756102 13.5758 0.5 13.5438C1.94698 14.4658 3.67567 15.01 5.52601 15.01Z" fill="black"/>
</g>
</svg>
