<svg width="17" height="16" viewBox="0 0 17 16" fill="none" xmlns="http://www.w3.org/2000/svg">
<g id="Icon">
<path id="Icon_2" fill-rule="evenodd" clip-rule="evenodd" d="M15.6172 0H1.38276C0.895224 0 0.5 0.395224 0.5 0.882759V15.1172C0.5 15.6048 0.895224 16 1.38276 16H9.05172V9.81241H6.96897V7.39034H9.05172V5.60828C9.05172 3.54207 10.3152 2.41655 12.1579 2.41655C12.7789 2.4152 13.3995 2.44651 14.0172 2.51034V4.67034H12.7483C11.7441 4.67034 11.5483 5.14483 11.5483 5.84552V7.38759H13.9483L13.6366 9.80966H11.5345V16H15.6172C16.1048 16 16.5 15.6048 16.5 15.1172V0.882759C16.5 0.395224 16.1048 0 15.6172 0Z" fill="black"/>
</g>
</svg>
